<svg xmlns="http://www.w3.org/2000/svg" id="Layer_1" version="1.1" viewBox="0 0 396.6 94.2"><defs><linearGradient id="linear-gradient" x1="362" x2="331.1" y1="8.3" y2="61.7" gradientUnits="userSpaceOnUse"><stop offset="0" stop-color="#3bff95"></stop><stop offset=".3" stop-color="#0ade7c"></stop><stop offset=".5" stop-color="#08ce7c"></stop><stop offset=".6" stop-color="#06ad7c"></stop><stop offset=".9" stop-color="#05997c"></stop><stop offset="1" stop-color="#05927d"></stop></linearGradient></defs><path d="M63.8 75.9c-2.2 2.2-6.9 1.1-7.3-2.7-.7-7.8 3.8-29.5-10.8-26-11.9 2.9-7.8 18-8.8 26.4-.5 4.6-7.7 5.2-8.3-1.7-.6-7-.5-19 0-26.1s.2-3 1.1-4.1c1.4-1.7 4.9-1.8 6.3-.2s.7 2.7 1.5 2.4c6.1-5.9 16-5.7 22.3-.2s1.5 2.5 2.4 2.3c7.7-8.9 23.7-9.2 28.7 2.6 2.1 5 2 18.5 1.5 24.1s-.5 3.3-2.6 3.9-4.2.2-5.2-1.4-.2-15.6-.5-19.1C83 41.5 65.6 45.3 64.5 57.8s.9 16-1 17.9Zm99.5-1.2v10.6c0 .3-1 2.3-1.3 2.6-2 1.9-6.4 1.3-6.9-1.7v-43c.4-3.5 6.5-4 7.8-.8l.6.2c9.3-6.3 23.2-2.3 26.5 8.7 2.9 9.6-.2 22.1-10.5 25.5-5.8 1.9-10.8.6-16.2-2.1ZM171 47c-2.1.3-7 2.9-7.6 5s-.3 11 0 12.5c.6 3.9 7.6 6.2 11 5.9 11.8-1.3 11.7-25.3-3.3-23.3Zm-32-13.3c.7-3.9 6.9-4.6 8.2-.9v41.3c-.5 3.9-7.6 3.8-7.8-.2h-.6c-7.9 6.7-20.6 4.1-25.2-5.2-8.7-17.8 7.5-37.1 25.4-25.6.3-2.8-.5-6.7 0-9.3ZM128 47c-12.1 1.8-10.5 23.5 1.2 23.3s9.7-2.8 10.2-7.2.2-7.1 0-9.1c-.6-4.8-7-7.7-11.4-7Z" class="st1"></path><path d="M211.4 39.7c27.2-2.6 28.5 36.6 3.8 38.1s-27.8-35.8-3.8-38.1Zm0 7.3c-11.8 2-11.5 25 3.8 23.3 13.4-1.5 12-26-3.8-23.3Zm45.2-3.1c8.8-7 23-5.8 26.9 5.8 1.7 5 1.9 17.7 1.3 23-.6 5.5-7.8 5.8-8.3.5s2-20.8-3.5-24.7-15.8 1.8-16.5 9.1.6 10.8 0 15.7-7.8 5.2-8.3 0c-.9-9.6.6-20.6.1-30.3.9-3.9 7.8-3.1 8.2 1Z" class="st1"></path><path d="M353 32.2 351.2 65c-1.1 3.9-5.8 4.5-9.1 3.1-2.8-1.3-2.7-3.3-2.6-6.1.2-5.4.9-11.4 1.3-16.9s.2-1 .4-1.5l-21.9-.9c-4.7-.8-4.9-8.9-1.5-11 2.5-1.6 8.5-.3 11.5-.2 7.9.3 15.8.4 23.7.8Zm-4.1-18.7c-3-.1-10.1-1.6-12.4.7-2.6 2.7-2.2 9.6 2.1 10.4s5.4.5 7.3.6 13.8-.4 14.4.4L359 46.8c1 5.5 11.3 5.3 11.8-.7l1.8-31.8c-7.9-.5-15.8-.6-23.7-.9Z" style="fill:url(#linear-gradient)"></path><path d="M302.2 40.4h7.2c1.2 0 2.5 2.4 2.4 3.7s-2 3.3-3.3 3.3h-6.3v19.3c0 .1.8 2.3.9 2.6 2.1 3.3 9.5-2.7 10.7 2.7 1 4.7-5.8 6-9.2 5.8-15-1-9.6-20.4-10.6-30.4-8.5 1.1-9-8.3 0-6.9v-7.2c0-1.3 2.7-2.9 4.1-2.9s4.1 1.5 4.1 2.9v7.2Zm-198.9.1c3.7-.8 5.4 1 5.8 4.5.6 6.3.7 21.6 0 27.7s-8 5.7-8.6 0-.7-22.2 0-28.2 1-3.6 2.9-4Zm135 0c2.7-.6 5 .3 5.3 3.2 1.1 9.3-.8 20.8 0 30.4-.6 4-7.7 4-8.2-.8-1.1-9.1.8-20.2 0-29.5.2-1.4 1.5-2.9 2.9-3.2Zm-135-10c7.2-1.7 7.7 8.8.8 8.1-4.9-.5-4.9-7.2-.8-8.1Zm133.1.9c.7-.6 2.2-1 3.1-1 6.5 0 5.3 10.1-1.4 8s-3.7-5.1-1.7-7Z" class="st1"></path></svg>